<?xml version="1.0" encoding="UTF-8" standalone="no"?>
<!-- Created with Inkscape (http://www.inkscape.org/) -->

<svg
   width="74.613106mm"
   height="69.954033mm"
   viewBox="0 0 74.613106 69.954033"
   version="1.1"
   id="svg5"
   inkscape:version="1.2.2 (732a01da63, 2022-12-09)"
   sodipodi:docname="論理素子.svg"
   inkscape:export-filename="nand_gate.svg"
   inkscape:export-xdpi="96"
   inkscape:export-ydpi="96"
   xmlns:inkscape="http://www.inkscape.org/namespaces/inkscape"
   xmlns:sodipodi="http://sodipodi.sourceforge.net/DTD/sodipodi-0.dtd"
   xmlns="http://www.w3.org/2000/svg"
   xmlns:svg="http://www.w3.org/2000/svg">
  <sodipodi:namedview
     id="namedview7"
     pagecolor="#646464"
     bordercolor="#999999"
     borderopacity="1"
     inkscape:showpageshadow="false"
     inkscape:pageopacity="0"
     inkscape:pagecheckerboard="true"
     inkscape:deskcolor="#d1d1d1"
     inkscape:document-units="mm"
     showgrid="false"
     inkscape:zoom="2.7652076"
     inkscape:cx="157.31188"
     inkscape:cy="135.61369"
     inkscape:window-width="1920"
     inkscape:window-height="974"
     inkscape:window-x="-11"
     inkscape:window-y="-11"
     inkscape:window-maximized="1"
     inkscape:current-layer="g4630"
     showborder="true" />
  <defs
     id="defs2">
    <rect
       x="-71.604027"
       y="145.37787"
       width="70.157478"
       height="57.861839"
       id="rect5581" />
    <rect
       x="-71.604027"
       y="145.37787"
       width="70.157478"
       height="57.861839"
       id="rect5583" />
    <rect
       x="-71.604027"
       y="145.37787"
       width="70.157478"
       height="57.861839"
       id="rect5585" />
    <rect
       x="-71.604027"
       y="145.37787"
       width="70.880753"
       height="109.9375"
       id="rect5587" />
  </defs>
  <g
     inkscape:groupmode="layer"
     id="layer2"
     inkscape:label="Layer_or"
     style="display:none"
     transform="translate(0.01310237,-0.02298538)">
    <circle
       style="display:none;fill:#ffffff;stroke:#000000;stroke-width:1;stroke-dasharray:none;stroke-dashoffset:0"
       id="path29567"
       cx="80"
       cy="80"
       r="79.5" />
    <path
       id="path29567-0"
       style="display:none;fill:#ffffff;stroke:#000000;stroke-width:1;stroke-dasharray:none;stroke-dashoffset:0"
       d="M 69.270493,0.5 A 79.5,79.5 0 0 0 0.57856745,39.999915 79.5,79.5 0 0 0 69.270493,79.500343 79.5,79.5 0 0 0 137.96501,39.996298 79.5,79.5 0 0 0 69.270493,0.5 Z" />
    <path
       id="path29567-0-4"
       style="display:none;fill:#ffffff;stroke:#000000;stroke-width:1;stroke-dasharray:none;stroke-dashoffset:0"
       d="M -38.044,0.50000065 V 79.49983 h 68.273869 v -0.01499 a 79.5,79.5 0 0 0 0.49661,0.0155 79.5,79.5 0 0 0 68.694513,-39.504049 79.5,79.5 0 0 0 -68.694513,-39.49629735 79.5,79.5 0 0 0 -0.49661,0.0155029 v -0.0155029 z" />
    <circle
       style="display:none;fill:#ffffff;stroke:#000000;stroke-width:1;stroke-dasharray:none;stroke-dashoffset:0"
       id="path29710"
       cx="-80"
       cy="40"
       r="79.5" />
    <path
       id="path29567-0-4-0"
       style="display:inline;fill:none;stroke:#ffffff;stroke-width:1;stroke-dasharray:none;stroke-dashoffset:0;stroke-opacity:1"
       d="M -11.010181,0.50022786 A 79.5,79.5 0 0 1 -0.50022786,40.000142 79.5,79.5 0 0 1 -11.04377,79.500057 h 41.273449 v -0.01499 a 79.5,79.5 0 0 0 0.496611,0.0155 A 79.5,79.5 0 0 0 99.420805,39.996525 79.5,79.5 0 0 0 30.72629,0.50022786 79.5,79.5 0 0 0 30.229679,0.51573079 v -0.0155029 z"
       inkscape:export-filename="or_gate.svg"
       inkscape:export-xdpi="96"
       inkscape:export-ydpi="96">
      <title
         id="title29757">OR回路</title>
    </path>
  </g>
  <g
     inkscape:groupmode="layer"
     id="g3935"
     inkscape:label="Layer_xor"
     style="display:none"
     transform="translate(0.01310237,-0.02298538)">
    <circle
       style="display:none;fill:#ffffff;stroke:#000000;stroke-width:1;stroke-dasharray:none;stroke-dashoffset:0"
       id="circle3919"
       cx="80"
       cy="80"
       r="79.5" />
    <path
       id="path3923"
       style="display:none;fill:#ffffff;stroke:#000000;stroke-width:1;stroke-dasharray:none;stroke-dashoffset:0"
       d="M 69.270493,0.5 A 79.5,79.5 0 0 0 0.57856745,39.999915 79.5,79.5 0 0 0 69.270493,79.500343 79.5,79.5 0 0 0 137.96501,39.996298 79.5,79.5 0 0 0 69.270493,0.5 Z" />
    <path
       id="path3925"
       style="display:none;fill:#ffffff;stroke:#000000;stroke-width:1;stroke-dasharray:none;stroke-dashoffset:0"
       d="M -38.044,0.50000065 V 79.49983 h 68.273869 v -0.01499 a 79.5,79.5 0 0 0 0.49661,0.0155 79.5,79.5 0 0 0 68.694513,-39.504049 79.5,79.5 0 0 0 -68.694513,-39.49629735 79.5,79.5 0 0 0 -0.49661,0.0155029 v -0.0155029 z" />
    <circle
       style="display:none;fill:#ffffff;stroke:#000000;stroke-width:1;stroke-dasharray:none;stroke-dashoffset:0"
       id="circle3927"
       cx="-80"
       cy="40"
       r="79.5" />
    <path
       id="path3931"
       style="display:inline;fill:none;stroke:#ffffff;stroke-width:1;stroke-dasharray:none;stroke-dashoffset:0;stroke-opacity:1"
       d="M -11.010181,0.50022786 A 79.5,79.5 0 0 1 -0.50022786,40.000142 79.5,79.5 0 0 1 -11.04377,79.500057 h 41.273449 v -0.01499 a 79.5,79.5 0 0 0 0.496611,0.0155 A 79.5,79.5 0 0 0 99.420805,39.996525 79.5,79.5 0 0 0 30.72629,0.50022786 79.5,79.5 0 0 0 30.229679,0.51573079 v -0.0155029 z"
       inkscape:export-filename="or_gate.svg"
       inkscape:export-xdpi="96"
       inkscape:export-ydpi="96">
      <title
         id="title3929">OR回路</title>
    </path>
  </g>
  <g
     inkscape:groupmode="layer"
     id="g5579"
     inkscape:label="Layer_RSFF"
     style="display:none"
     transform="translate(0.01310237,-0.02298538)">
    <rect
       style="fill:none;fill-opacity:1;stroke:#ffffff;stroke-width:0.999998;stroke-opacity:1"
       id="rect5563"
       width="59.000004"
       height="79"
       x="0.5"
       y="0.5"
       inkscape:label="rect5563" />
    <text
       xml:space="preserve"
       transform="matrix(0.26458333,0,0,0.26458333,64.081295,-23.242107)"
       id="text5565"
       style="font-style:normal;font-variant:normal;font-weight:normal;font-stretch:normal;font-size:32px;font-family:Arial;-inkscape-font-specification:Arial;white-space:pre;shape-inside:url(#rect5581);display:inline;fill:none;fill-opacity:1;stroke:#ffffff;stroke-width:3.77953;stroke-opacity:1"><tspan
         x="-71.603516"
         y="174.20109"
         id="tspan5774">Q</tspan></text>
    <text
       xml:space="preserve"
       transform="matrix(0.26458333,0,0,0.26458333,27.438504,-23.243093)"
       id="text5569"
       style="font-style:normal;font-variant:normal;font-weight:normal;font-stretch:normal;font-size:32px;font-family:Arial;-inkscape-font-specification:Arial;white-space:pre;shape-inside:url(#rect5583);display:inline;fill:none;fill-opacity:1;stroke:#ffffff;stroke-width:3.77953;stroke-opacity:1"><tspan
         x="-71.603516"
         y="174.20109"
         id="tspan5776">R</tspan></text>
    <text
       xml:space="preserve"
       transform="matrix(0.26458333,0,0,0.26458333,28.239758,16.939759)"
       id="text5573"
       style="font-style:normal;font-variant:normal;font-weight:normal;font-stretch:normal;font-size:32px;font-family:Arial;-inkscape-font-specification:Arial;white-space:pre;shape-inside:url(#rect5585);display:inline;fill:none;fill-opacity:1;stroke:#ffffff;stroke-width:3.77953;stroke-opacity:1"><tspan
         x="-71.603516"
         y="174.20109"
         id="tspan5778">S</tspan></text>
    <text
       xml:space="preserve"
       transform="matrix(0.26458333,0,0,0.26458333,57.99717,6.1751449)"
       id="text5577"
       style="font-style:normal;font-variant:normal;font-weight:normal;font-stretch:normal;font-size:32px;font-family:Arial;-inkscape-font-specification:Arial;text-align:center;white-space:pre;shape-inside:url(#rect5587);display:inline;fill:none;fill-opacity:1;stroke:#ffffff;stroke-width:3.77953;stroke-opacity:1"
       x="12.101562"
       y="0"><tspan
         x="-45.061523"
         y="174.20109"
         id="tspan5780">_
</tspan><tspan
         x="-48.608398"
         y="214.20109"
         id="tspan5782">Q</tspan></text>
    <path
       sodipodi:type="star"
       style="display:none;fill:none;fill-opacity:1;stroke:#ffffff;stroke-width:2.76712;stroke-opacity:1"
       id="path5589"
       inkscape:flatsided="true"
       sodipodi:sides="3"
       sodipodi:cx="22.191854"
       sodipodi:cy="102.56967"
       sodipodi:r1="24.7003"
       sodipodi:r2="12.35015"
       sodipodi:arg1="0"
       sodipodi:arg2="1.0471976"
       inkscape:rounded="0"
       inkscape:randomized="0"
       d="m 46.892155,102.56967 -37.0504506,21.39109 0,-42.782176 z"
       inkscape:transform-center-x="-2.3980432"
       transform="matrix(0.38834239,0,0,0.33630125,-3.284656,5.5054517)" />
  </g>
  <g
     inkscape:groupmode="layer"
     id="layer1"
     inkscape:label="Layer_and"
     style="display:none"
     transform="translate(0.01310237,-0.02298538)">
    <circle
       style="display:none;fill:#ffffff;stroke:#000000;stroke-width:1;stroke-opacity:1"
       id="path1082"
       cx="60"
       cy="40"
       r="39.5" />
    <rect
       style="display:none;fill:#ffffff;stroke:#000000;stroke-width:1;stroke-opacity:1"
       id="rect2488"
       width="59"
       height="79"
       x="0.5"
       y="0.5" />
    <path
       id="path1082-8-5"
       style="display:inline;fill:none;fill-opacity:1;stroke:#ffffff;stroke-width:1;stroke-opacity:1"
       d="M 0.5,0.50000002 V 79.499833 h 59.000019 v -0.0186 a 39.5,39.5 0 0 0 0.49971,0.0186 39.5,39.5 0 0 0 39.49991,-39.49992 39.5,39.5 0 0 0 -39.49991,-39.49991298 39.5,39.5 0 0 0 -0.49971,0.0186 v -0.0186 z" />
  </g>
  <g
     inkscape:groupmode="layer"
     id="layer5"
     inkscape:label="Layer not"
     style="display:none"
     transform="translate(0.01310237,-0.02298538)">
    <path
       sodipodi:type="star"
       style="fill:none;fill-opacity:1;stroke:#ffffff;stroke-width:0.968582;stroke-opacity:1"
       id="path3842"
       inkscape:flatsided="true"
       sodipodi:sides="3"
       sodipodi:cx="10.716495"
       sodipodi:cy="19.136599"
       sodipodi:r1="38.175953"
       sodipodi:r2="19.087978"
       sodipodi:arg1="0"
       sodipodi:arg2="1.0471976"
       inkscape:rounded="0"
       inkscape:randomized="0"
       d="m 48.892447,19.136599 -57.2639289,33.061345 0,-66.12269 z"
       inkscape:transform-center-x="-9.8535016"
       transform="matrix(1.0324302,0,0,1.0324434,9.1429674,15.242543)" />
    <circle
       style="fill:none;fill-opacity:1;stroke:#ffffff;stroke-width:1;stroke-opacity:1"
       id="path3336-4"
       cx="67.621002"
       cy="35"
       r="7.5" />
  </g>
  <g
     inkscape:groupmode="layer"
     id="g4630"
     inkscape:label="Layer not 2"
     style="display:inline;stroke-width:2;stroke-dasharray:none"
     transform="translate(0.01310237,-0.02298538)">
    <path
       sodipodi:type="star"
       style="fill:none;fill-opacity:1;stroke:#ffffff;stroke-width:1.98826;stroke-dasharray:none;stroke-opacity:1"
       id="path4626"
       inkscape:flatsided="true"
       sodipodi:sides="3"
       sodipodi:cx="10.716495"
       sodipodi:cy="19.136599"
       sodipodi:r1="38.175953"
       sodipodi:r2="19.087978"
       sodipodi:arg1="0"
       sodipodi:arg2="1.0471976"
       inkscape:rounded="0"
       inkscape:randomized="0"
       d="m 48.892447,19.136599 -57.2639289,33.061345 0,-66.12269 z"
       inkscape:transform-center-x="-9.603504"
       transform="matrix(1.0062359,0,0,1.0055712,9.4109137,15.756788)" />
    <circle
       style="fill:none;fill-opacity:1;stroke:#ffffff;stroke-width:2;stroke-dasharray:none;stroke-opacity:1"
       id="circle4628"
       cx="66.599998"
       cy="35"
       r="7" />
  </g>
  <g
     inkscape:groupmode="layer"
     id="layer3"
     inkscape:label="Layer and 2"
     style="display:none"
     transform="translate(0.01310237,-0.02298538)">
    <rect
       style="display:none;fill:#ffffff;stroke:#000000;stroke-width:2;stroke-dasharray:none;stroke-opacity:1"
       id="rect2488-4"
       width="58"
       height="78"
       x="1"
       y="1" />
    <circle
       style="display:none;fill:#ffffff;stroke:#000000;stroke-width:2;stroke-dasharray:none;stroke-opacity:1"
       id="path1082-1"
       cx="60"
       cy="40"
       r="39" />
    <path
       id="path1082-1-4"
       style="display:inline;fill:#ffffff;fill-opacity:0;stroke:#ffffff;stroke-width:2;stroke-dasharray:none;stroke-opacity:1"
       d="M 1,0.99993896 V 78.999829 h 58.000077 v -0.03721 a 39,39 0 0 0 0.999939,0.03721 A 39,39 0 0 0 99.000219,40.000142 39,39 0 0 0 60.000016,0.99993896 39,39 0 0 0 59.000077,1.037146 V 0.999939 Z" />
  </g>
</svg>
